# xmcd
#
# Track frame offsets:
#	150
#	21821
#	37823
#	58509
#	79725
#	96268
#	115309
#	127338
#	149138
#	161218
#	174927
#	186924
#	202550
#	219275
#	235993
#	251176
#
# Disc length: 3562 seconds
#
# Revision: 0
# Processed by: cddbd v1.5.2PL0 Copyright (c) Steve Scherf et al.
# Submitted via: EasyCDDAExtractor 2010.6.0.0
#
DISCID=e30de810
DTITLE=Miguel Ángel - Una voz con alma
DYEAR=1900
DGENRE=
TTITLE0=Alma mia
TTITLE1=Paraiso soñado
TTITLE2=Silencio
TTITLE3=El Último Café
TTITLE4=Sabrás que te quiero
TTITLE5=Te quiero dijiste
TTITLE6=Devuélveme el corazón
TTITLE7=Niebla del riachuelo
TTITLE8=Un gran amor
TTITLE9=Escríbeme
TTITLE10=Un solo corazón
TTITLE11=Bésame otra vez
TTITLE12=En esta tarde gris
TTITLE13=Ya no me quieres
TTITLE14=Pecado
TTITLE15=Hasta siempre amor
EXTD=
EXTT0=
EXTT1=
EXTT2=
EXTT3=
EXTT4=
EXTT5=
EXTT6=
EXTT7=
EXTT8=
EXTT9=
EXTT10=
EXTT11=
EXTT12=
EXTT13=
EXTT14=
EXTT15=
PLAYORDER=
